<svg xmlns="http://www.w3.org/2000/svg" width="16" height="16" viewBox="0 0 16 16" fill="none"><g clip-path="url(#clip0_1_37)"><path d="M8.00001 14.6667C11.6819 14.6667 14.6667 11.6819 14.6667 8C14.6667 4.3181 11.6819 1.33334 8.00001 1.33334C4.31811 1.33334 1.33334 4.3181 1.33334 8C1.33334 11.6819 4.31811 14.6667 8.00001 14.6667Z" stroke="#814AC8" stroke-width="1.5" stroke-linecap="round" stroke-linejoin="round"></path><path d="M1.33334 8H14.6667" stroke="#814AC8" stroke-width="1.5" stroke-linecap="round" stroke-linejoin="round"></path><path d="M8.00001 1.33334C9.66753 3.1589 10.6152 5.52802 10.6667 8C10.6152 10.472 9.66753 12.8411 8.00001 14.6667C6.33249 12.8411 5.38484 10.472 5.33334 8C5.38484 5.52802 6.33249 3.1589 8.00001 1.33334V1.33334Z" stroke="#814AC8" stroke-width="1.5" stroke-linecap="round" stroke-linejoin="round"></path></g><defs><clipPath id="clip0_1_37"><rect width="16" height="16" fill="white"></rect></clipPath></defs></svg>