<svg xmlns="http://www.w3.org/2000/svg" width="120" height="28" viewBox="0 0 120 28" fill="none"><path d="M7.68072 3.48562C9.0089 3.48564 10.1543 3.7068 11.1167 4.14952C12.0792 4.57301 12.8588 5.1218 13.4555 5.79553C14.0714 6.44999 14.5047 7.1621 14.755 7.93204L12.4448 8.74076C12.0791 7.77827 11.4631 7.02755 10.5968 6.48856C9.73059 5.93033 8.68159 5.65099 7.44962 5.65099C6.15991 5.65099 5.13011 5.96875 4.36013 6.60397C3.60939 7.21996 3.23403 8.067 3.23403 9.14498C3.23405 10.0689 3.53235 10.781 4.12903 11.2815C4.72575 11.7627 5.50535 12.1189 6.46779 12.3499L8.69114 12.8986C10.6546 13.3606 12.1561 14.1306 13.1955 15.2085C14.2543 16.2673 14.7838 17.4126 14.7838 18.6446C14.7838 19.7033 14.5141 20.6754 13.9751 21.5609C13.4361 22.4271 12.6373 23.12 11.5787 23.6397C10.5392 24.1402 9.23989 24.3907 7.68072 24.3907C6.5643 24.3907 5.57285 24.2752 4.70664 24.0442C3.84045 23.794 3.08966 23.457 2.45444 23.0335C1.81921 22.5908 1.29924 22.1095 0.895 21.5898C0.490777 21.0508 0.19249 20.4828 0 19.8861L2.33876 19.0776C2.6275 19.9246 3.2051 20.6657 4.07132 21.301C4.95681 21.917 6.03488 22.2251 7.30536 22.2251C8.86449 22.2251 10.0867 21.9169 10.9722 21.301C11.8576 20.685 12.3005 19.867 12.3005 18.8468C12.3005 17.9036 11.9059 17.1432 11.1167 16.5657C10.3275 15.969 9.28784 15.5069 7.99811 15.1797L5.77476 14.6021C4.87012 14.3711 4.0328 14.0344 3.26288 13.5917C2.51216 13.1297 1.90575 12.5521 1.44376 11.8591C1.00102 11.1469 0.779586 10.2998 0.779586 9.3181C0.779593 7.4894 1.36679 6.06502 2.541 5.0448C3.73448 4.00532 5.44776 3.48562 7.68072 3.48562Z" fill="black"></path><path d="M27.0912 3.48535C28.3038 3.48535 29.4684 3.70682 30.5849 4.14952C31.7014 4.57302 32.7026 5.17941 33.5881 5.96865C34.4735 6.73861 35.1568 7.63375 35.638 8.65392L33.5301 9.72232C33.1451 8.91388 32.6158 8.21137 31.9421 7.61466C31.2683 7.01792 30.5176 6.55585 29.6899 6.2286C28.8621 5.88211 27.9959 5.7087 27.0912 5.7087C25.686 5.7087 24.4251 6.06487 23.3087 6.77709C22.1922 7.47008 21.3163 8.43264 20.6811 9.66461C20.0651 10.8966 19.757 12.321 19.757 13.9379C19.757 15.5549 20.0747 16.9891 20.7099 18.2403C21.3452 19.4916 22.221 20.4733 23.3375 21.1856C24.4732 21.8785 25.7533 22.2251 27.1777 22.2251C28.1017 22.2251 28.9776 22.0421 29.8053 21.6763C30.633 21.2914 31.3742 20.7716 32.0286 20.1172C32.7024 19.4627 33.2319 18.712 33.6169 17.865L35.7535 18.9334C35.253 19.992 34.5601 20.9352 33.6746 21.7629C32.8084 22.5906 31.8074 23.2357 30.6717 23.6977C29.5552 24.1597 28.3905 24.3905 27.1777 24.3905C25.2528 24.3905 23.5493 23.9478 22.0671 23.0624C20.5849 22.1577 19.4201 20.9257 18.5732 19.3664C17.7262 17.788 17.3028 15.9784 17.3028 13.9379C17.3028 11.8975 17.7166 10.0977 18.5443 8.53851C19.3913 6.96007 20.5462 5.72803 22.0092 4.84255C23.4914 3.93782 25.1855 3.48536 27.0912 3.48535Z" fill="black"></path><path fill-rule="evenodd" clip-rule="evenodd" d="M55.7554 24.0442H53.1855L50.8789 18.298H41.6613L39.3547 24.0442H36.756L44.9852 3.83214H47.5262L55.7554 24.0442ZM42.5424 16.1035H49.9978L46.27 6.8171L42.5424 16.1035Z" fill="black"></path><path d="M60.8875 21.8209H70.4159V24.0442H58.433V3.83214H60.8875V21.8209Z" fill="black"></path><path d="M85.1004 6.05548H75.6005V12.581H84.2631V14.7755H75.6005V21.8209H85.1581V24.0442H73.1464V3.83214H85.1004V6.05548Z" fill="black"></path><path d="M92.1266 6.96837C92.1266 3.11985 95.2465 0 99.095 0H113.032C116.88 0 120 3.11985 120 6.96837V20.9051C120 24.7536 116.88 27.8735 113.032 27.8735H99.095C95.2465 27.8735 92.1266 24.7536 92.1266 20.9051V6.96837Z" fill="#814AC8"></path><path d="M107.246 13.9362L115.608 22.2983H113.243L106.063 15.1187L98.8837 22.2983H96.5199L113.244 5.57422H115.608L107.246 13.9362Z" fill="white"></path><path d="M104.586 11.2761L103.403 12.4587L96.5186 5.57422H98.8838L104.586 11.2761Z" fill="white"></path></svg>